<svg width="142" height="51" viewBox="0 0 142 51" fill="none" xmlns="http://www.w3.org/2000/svg">
<path d="M33.8288 0.196926C28.2957 0.196926 22.9894 2.24344 19.077 5.88626L6.30851 17.7749C2.39609 21.4177 0.19812 26.3584 0.19812 31.5102C0.19812 42.2382 9.53845 50.9348 21.0604 50.9348C26.5934 50.9348 31.8997 48.8882 35.8121 45.2454L44.6441 37.022C44.6441 37.0218 44.6443 37.0221 44.6441 37.022L70.3777 13.0617C72.2462 11.3219 74.7805 10.3445 77.423 10.3445C81.8471 10.3445 85.5979 13.0292 86.8983 16.7444L95.0197 9.18254C91.3147 3.77959 84.8183 0.196926 77.423 0.196926C71.89 0.196926 66.5837 2.24344 62.6713 5.88626L28.1057 38.0701C26.2372 39.8099 23.7029 40.7872 21.0604 40.7872C15.5576 40.7872 11.0967 36.6338 11.0967 31.5102C11.0967 29.0497 12.1464 26.6901 14.015 24.9503L26.7834 13.0617C28.6519 11.3219 31.1862 10.3445 33.8288 10.3445C38.253 10.3445 42.0036 13.0294 43.304 16.7446L51.4256 9.18272C47.7206 3.77969 41.2242 0.196926 33.8288 0.196926Z" fill="#6D2732"/>
<path d="M71.7008 38.0701C69.8322 39.8099 67.2979 40.7872 64.6554 40.7872C60.2318 40.7872 56.4814 38.1032 55.1807 34.3887L47.0594 41.9503C50.7646 47.3526 57.2607 50.9348 64.6554 50.9348C70.1884 50.9348 75.4947 48.8882 79.4071 45.2454L113.973 13.0617C115.841 11.3219 118.376 10.3445 121.018 10.3445C126.521 10.3445 130.982 14.498 130.982 19.6216C130.982 22.082 129.932 24.4417 128.063 26.1815L115.295 38.0701C113.426 39.8099 110.892 40.7872 108.25 40.7872C103.826 40.7872 100.075 38.1027 98.7746 34.3878L90.6534 41.9496C94.3583 47.3524 100.855 50.9348 108.25 50.9348C113.783 50.9348 119.089 48.8882 123.001 45.2454L135.77 33.3568C139.682 29.714 141.88 24.7733 141.88 19.6216C141.88 8.89363 132.54 0.196926 121.018 0.196926C115.485 0.196926 110.179 2.24344 106.266 5.88626L71.7008 38.0701Z" fill="#6D2732"/>
</svg>
