<svg width="386" height="436" viewBox="0 0 386 436" fill="none" xmlns="http://www.w3.org/2000/svg">
<path d="M118 -0.000854492C207.435 -0.000854492 296.369 -0.000854492 385.542 -0.000854492C385.542 128.842 385.542 257.232 385.542 385.959C257.165 385.959 128.938 385.959 0.347168 385.959C0.347168 257.633 0.347168 129.108 0.347168 -0.000854492C39.3213 -0.000854492 78.4107 -0.000854492 118 -0.000854492ZM318.29 295.985C318.29 286.46 318.29 276.935 318.29 267.493C313.877 267.493 310.336 267.493 306.439 267.493C306.439 270.972 306.471 274.1 306.433 277.227C306.299 288.483 306.141 299.739 305.278 311.038C300.746 313.432 296.339 316.119 291.642 318.13C287.622 319.851 283.467 318.009 282.624 313.889C281.608 308.923 280.59 303.548 281.455 298.685C284.03 284.198 287.604 269.891 290.643 255.483C294.664 236.419 289.697 219.957 275.767 206.346C273.133 203.772 269.867 201.846 266.011 198.962C270.469 197.442 273.971 196.125 277.545 195.051C298.969 188.61 317.154 177.328 331.009 159.51C340.673 147.082 344.767 133.157 341.894 117.547C339.547 104.803 331.881 95.2734 322.25 87.2287C318.147 83.8015 313.512 81.0124 308.552 77.5365C313.969 74.5211 318.81 71.9904 323.452 69.1383C324.761 68.3343 325.492 66.5887 326.487 65.275C324.908 65.4491 323.087 65.1765 321.79 65.8762C316.677 68.6366 311.798 71.8307 306.675 74.572C305.241 75.3394 303.178 75.5674 301.566 75.2404C297.678 74.4518 293.946 72.8272 290.045 72.18C272.91 69.3372 255.813 65.8419 238.55 64.3339C227.099 63.3336 215.328 64.7547 203.807 66.0429C178.688 68.8515 154.567 75.629 132.254 87.6193C106.299 101.566 82.8396 118.6 65.8825 143.49C54.672 159.945 46.5739 177.081 49.0454 197.652C50.8706 212.844 61.3488 228.933 80.0608 229.953C99.1741 230.995 116.879 226.163 133.38 216.745C152.618 205.764 167.182 189.876 178.679 171.315C192.067 149.7 201.529 126.361 205.728 101.136C206.353 97.3843 205.815 93.4387 205.815 89.5826C204.205 91.1019 203.676 92.7829 203.076 94.4377C198.89 105.971 195.596 117.933 190.317 128.943C176.763 157.216 159.32 182.747 134.224 202.322C117.669 215.235 100.073 225.261 78.0251 224.097C69.9827 223.672 63.4539 220.641 59.0188 213.98C50.498 201.181 50.8859 186.9 55.0734 173.25C63.3513 146.265 82.0562 126.723 104 110.095C123.661 95.1973 145.479 84.4946 169.32 78.004C191.914 71.8532 214.645 66.5161 238.324 69.0085C251.966 70.4445 265.591 72.1716 279.141 74.2929C284.86 75.1882 290.368 77.4365 297.441 79.4983C290.071 85.5688 283.911 90.2868 278.151 95.4507C257.605 113.871 239.968 134.986 225.287 158.159C210.896 180.873 198.819 205.039 185.256 228.294C174.807 246.21 164.105 264.02 152.536 281.218C148.139 287.753 141.002 292.445 134.943 297.122C133.81 296.41 132.697 295.126 131.539 295.083C125.78 294.871 120.008 294.986 114.223 294.986C114.223 289.446 114.223 284.408 114.223 278.994C122.788 278.994 131.033 278.994 139.399 278.994C139.399 274.901 139.399 271.202 139.399 267.428C126.823 267.428 114.609 267.428 101.738 267.428C101.738 284.119 101.738 300.53 100.895 316.936C92.9242 317.628 84.9534 318.319 76.3968 318.681C72.9613 314.123 69.5258 309.566 65.9184 304.78C76.0276 301.844 80.869 295.896 81.183 286.826C81.4825 278.176 77.7478 271.813 70.2507 269.23C60.652 265.923 50.7356 267.397 40.3956 267.186C40.3956 272.225 40.3956 276.527 39.8054 281.077C32.7681 288.273 33.0206 300.266 40.5704 310.067C40.5704 317.134 40.5704 324.201 40.5704 331.405C44.7731 331.405 48.4283 331.405 52.6291 331.405C52.6291 326.743 52.6291 322.469 53.2914 318.262C56.6649 319.063 60.0385 319.865 63.9643 321.046C66.0588 323.823 68.0299 326.707 70.3062 329.325C71.2709 330.435 72.8207 331.545 74.2017 331.683C77.586 332.021 81.0267 331.794 85.1245 331.794C83.5009 329.128 82.2459 327.068 81.0505 324.176C82.0882 323.45 83.0572 322.237 84.1751 322.079C90.0394 321.251 95.9413 320.69 101.989 320.942C101.989 324.395 101.989 327.847 101.989 331.388C114.802 331.388 127.139 331.388 139.365 331.388C139.365 327.4 139.365 323.833 139.365 319.883C130.703 319.883 122.428 319.883 113.84 319.883C113.982 317.997 114.092 316.527 114.965 315.051C119.989 312.408 125.013 309.765 130.796 306.98C132.285 306.336 133.775 305.692 135.947 304.973C138.338 303.492 140.751 302.045 143.116 300.523C147.679 297.585 152.214 294.605 156.734 292.329C156.642 293.234 156.55 294.139 156.079 295.563C156.151 296.185 156.223 296.807 156.482 298.101C156.423 299.253 156.365 300.405 156.035 302.151C156.178 302.752 156.321 303.354 156.643 304.736C156.83 306.054 157.017 307.372 157.03 309.153C157.01 309.522 157.16 309.798 157.727 310.728C158.386 312.431 158.946 314.181 159.72 315.83C165.426 327.989 175.987 333.189 187.828 332.697C200.963 332.151 209.474 325.747 212.48 314.066C214.016 308.097 214.043 301.739 214.79 295.224C205.216 295.224 196.638 295.224 187.925 295.224C187.925 298.942 187.925 302.489 187.925 306.619C192.841 306.619 197.407 306.619 201.941 306.619C202.096 313.706 199.497 317.738 193.762 319.921C183.456 323.844 173.051 318.449 170.705 307.638C169.871 303.796 169.526 299.705 169.811 295.79C170.675 283.923 178.762 276.695 189.965 278.298C194.11 278.891 197.935 281.715 202.448 283.768C204.408 282.091 206.887 279.971 209.505 277.732C202.048 267.837 192.419 265.01 181.193 266.07C185.195 261.438 189.36 256.935 193.173 252.152C212.563 227.831 227.44 200.766 240.497 172.703C255.162 141.185 271.198 110.727 297.974 87.3933C302.688 83.2855 303.334 82.9421 307.71 87.2521C319.182 98.5517 322.4 112.947 320.787 128.058C317.962 154.533 305.077 175.268 282.095 189.274C273.333 194.614 264.398 197.899 253.824 193.692C250.071 192.2 245.252 192.826 241.033 193.368C239.526 193.562 237.215 196.466 237.35 197.943C237.485 199.406 240.115 201.539 241.868 201.775C245.953 202.327 250.209 202.283 254.322 201.824C265.497 200.578 272.879 206.804 272.912 218.131C272.923 221.918 272.702 225.794 271.904 229.481C268.832 243.673 265.483 257.806 261.89 271.309C260.459 269.575 259.029 267.841 257.598 266.107C256.356 267.859 254.758 269.458 253.93 271.387C248.341 284.395 242.904 297.469 237.441 310.531C234.547 317.45 231.699 324.388 228.701 331.629C233.431 331.629 237.393 331.629 241.914 331.629C242.152 321.573 248.731 320.803 256.478 321.842C257.131 321.93 257.819 321.94 258.469 321.841C266.367 320.63 272.743 321.911 274.235 331.335C274.254 331.45 274.46 331.535 274.397 331.482C278.487 331.482 282.392 331.482 286.614 331.482C285.6 328.479 284.715 325.86 284.274 322.687C286.146 322.522 288.145 322.722 289.867 322.125C295.366 320.217 300.762 318.014 306.401 316.852C306.401 321.773 306.401 326.694 306.401 331.428C319.806 331.428 332.357 331.428 344.818 331.428C344.818 327.454 344.818 323.866 344.818 319.861C335.927 319.861 327.349 319.861 318.639 319.861C318.639 313.995 318.639 308.561 319.236 302.958C329.481 292.129 339.767 281.339 349.91 270.416C351.027 269.214 351.321 267.248 351.997 265.636C351.578 265.353 351.159 265.071 350.741 264.789C349.614 265.595 348.304 266.236 347.392 267.238C343.499 271.519 339.915 276.095 335.86 280.21C330.216 285.938 324.252 291.351 318.29 295.985Z" fill="#6A2001"/>
<path d="M116.864 423.766C116.926 418.889 116.821 414.389 117.033 409.905C117.077 408.983 118.31 408.117 118.994 407.226C119.69 408.111 120.972 408.984 120.989 409.882C121.145 418.138 121.081 426.399 121.081 434.658C120.674 434.886 120.266 435.115 119.859 435.344C114.561 429.607 109.262 423.87 103.964 418.134C103.554 418.213 103.144 418.293 102.735 418.372C102.735 422.71 102.89 427.056 102.639 431.379C102.565 432.652 101.344 433.858 100.648 435.096C99.8336 433.814 98.3501 432.551 98.3139 431.248C98.0942 423.339 98.2044 415.42 98.2044 407.505C98.6266 407.316 99.0489 407.128 99.4711 406.939C102.557 410.253 105.556 413.655 108.756 416.855C111.314 419.413 114.116 421.727 116.864 423.766Z" fill="#BB7B86"/>
<path d="M278.102 419.16C277.784 432.162 271.205 437.989 260.749 434.697C260.393 431.863 261.38 431.272 264.355 431.641C269.492 432.279 272.182 429.773 272.864 424.682C270.512 424.99 268.06 425.846 265.798 425.49C261.566 424.824 259.118 421.98 258.937 417.565C258.748 412.958 260.561 409.419 265.031 407.765C269.212 406.217 273.169 407.023 275.6 410.807C277.041 413.05 277.3 416.053 278.102 419.16ZM272.794 419.272C272.397 416.899 272.529 414.209 271.378 412.289C270.809 411.341 267.387 411.048 266.13 411.842C264.621 412.796 263.252 415.209 263.216 417.017C263.126 421.568 267.554 422.842 272.794 419.272Z" fill="#BB7B86"/>
<path d="M306.498 430.893C307.406 428.382 308.935 425.557 308.125 423.831C307.49 422.479 303.85 421.733 301.731 422.033C295.008 422.985 294.841 423.155 296.309 416.406C298.645 405.672 295.715 407.298 307.808 407.165C309.09 407.151 310.375 407.377 311.697 407.495C312.425 412.192 309.097 411.294 306.964 411.1C302.109 410.659 300.146 412.533 301.067 417.737C301.838 417.685 302.598 417.668 303.351 417.579C308.556 416.969 312.254 419.126 313.452 423.487C314.659 427.883 312.386 432.891 308.318 434.796C304.262 436.694 298.346 435.471 296.127 432.08C295.645 431.344 295.947 430.095 295.889 429.082C297.025 429.13 298.197 429.021 299.292 429.259C301.586 429.76 303.84 430.443 306.498 430.893Z" fill="#BB7B86"/>
<path d="M192.335 422.676C189.349 423.546 186.501 424.029 183.323 424.569C183.323 426.418 183.323 428.334 183.323 431.032C186.242 431.032 189.185 430.861 192.086 431.134C192.994 431.219 193.788 432.505 194.634 433.241C193.845 433.871 193.076 435.011 192.263 435.044C187.832 435.223 183.39 435.129 178.456 435.129C178.456 426.23 178.454 417.946 178.464 409.662C178.464 409.336 178.492 408.778 178.65 408.721C180.226 408.149 181.847 407.192 183.427 407.241C187.096 407.356 190.749 407.968 194.408 408.379C193.783 409.455 193.379 411.147 192.484 411.467C191.003 411.997 189.199 411.747 187.544 411.637C184.67 411.447 182.901 411.908 182.876 415.563C182.851 419.35 184.55 419.957 187.739 419.936C189.464 419.924 192.496 418.381 192.335 422.676Z" fill="#BB7B86"/>
<path d="M56.6066 424.549C58.6872 432.069 53.3131 437.276 45.5439 435.449C42.9539 434.84 40.5964 433.242 38.1326 432.096C38.2273 431.328 38.322 430.56 38.4167 429.792C39.9332 429.792 41.4723 429.635 42.9576 429.85C43.883 429.984 44.7796 431.131 45.5975 431.036C47.7362 430.787 49.8245 430.106 51.933 429.596C50.9344 427.766 50.2955 425.553 48.8525 424.194C46.7095 422.176 43.7654 421.018 41.5777 419.035C37.4817 415.323 38.5024 410.13 43.5294 407.802C48.0514 405.708 52.6318 406.84 57.4562 412.215C55.0066 412.215 53.549 412.386 52.1536 412.164C50.8905 411.964 49.6246 410.851 48.4879 411.017C47.0242 411.231 45.6881 412.319 44.2971 413.03C44.9913 414.368 45.3676 416.096 46.4395 416.972C49.62 419.573 53.0747 421.838 56.6066 424.549Z" fill="#BB7B86"/>
<path d="M138.972 421.031C139.932 410.959 145.559 405.916 154.314 407.082C156.048 407.313 157.845 408.099 159.285 409.101C160.091 409.662 160.223 411.192 160.658 412.285C159.528 412.377 158.219 412.887 157.295 412.494C149.268 409.079 143.465 413.119 143.851 421.978C144.175 429.42 149.549 433.048 156.555 430.734C157.791 430.326 159.313 430.781 160.703 430.837C159.832 432.022 159.219 433.704 158.048 434.313C148.966 439.037 139.8 432.796 138.972 421.031Z" fill="#BB7B86"/>
<path d="M330.434 433.742C333.527 430.005 336.597 426.71 339.431 423.223C340.876 421.445 342.715 419.388 342.878 417.338C343.037 415.347 341.826 412.23 340.244 411.345C337.591 409.86 335.319 411.617 334.089 414.569C333.591 415.766 332.309 416.636 331.384 417.655C331.063 416.046 330.169 414.295 330.527 412.856C331.641 408.387 336.414 406.025 341.286 407.128C345.59 408.102 348.8 412.595 347.521 417.013C346.631 420.086 344.575 422.863 342.811 425.626C341.776 427.248 340.293 428.585 338.024 431.18C341.377 431.18 343.442 431.039 345.469 431.252C346.245 431.333 347.382 432.119 347.536 432.776C347.682 433.392 346.729 434.932 346.292 434.92C340.962 434.771 335.638 434.41 330.434 433.742Z" fill="#BB7B86"/>
<path d="M238.167 408.116C239.321 408.413 240.838 408.862 240.847 409.34C240.991 417.144 240.998 424.953 240.858 432.758C240.844 433.537 239.674 434.296 239.04 435.065C238.296 434.242 236.932 433.438 236.906 432.593C236.719 426.629 236.806 420.656 236.806 414.97C234.664 414.56 232.853 414.214 231.042 413.868C231.045 413.324 231.049 412.78 231.052 412.236C233.311 410.918 235.569 409.6 238.167 408.116Z" fill="#BB7B86"/>
<path d="M79.0577 419.018C79.0559 423.671 79.199 427.838 78.9522 431.982C78.8891 433.043 77.5943 434.03 76.8653 435.051C76.1994 434.131 74.9752 433.222 74.9558 432.288C74.7999 424.807 74.7991 417.319 74.9704 409.838C74.9907 408.954 76.3378 408.102 77.0699 407.235C77.7296 408.17 78.866 409.061 78.9583 410.049C79.22 412.853 79.0548 415.696 79.0577 419.018Z" fill="#BB7B86"/>
<path d="M306.198 315.925C300.762 318.014 295.366 320.217 289.867 322.125C288.145 322.722 286.146 322.522 283.763 322.735C276.248 305.842 269.243 288.901 262.238 271.96C265.483 257.806 268.832 243.673 271.904 229.481C272.702 225.794 272.922 221.918 272.912 218.131C272.879 206.804 265.496 200.578 254.322 201.824C250.209 202.283 245.953 202.327 241.867 201.775C240.115 201.539 237.485 199.406 237.35 197.943C237.215 196.466 239.526 193.562 241.033 193.368C245.252 192.826 250.071 192.2 253.823 193.692C264.398 197.899 273.333 194.614 282.095 189.274C305.077 175.268 317.962 154.533 320.787 128.058C322.399 112.947 319.181 98.5517 307.71 87.2521C303.334 82.9421 302.688 83.2855 297.974 87.3933C271.198 110.727 255.162 141.185 240.497 172.703C227.44 200.766 212.563 227.831 193.173 252.152C189.36 256.935 185.195 261.438 180.74 266.518C166.702 269.717 159.981 279.011 156.761 291.643C152.214 294.605 147.679 297.585 143.116 300.523C140.751 302.045 138.338 303.492 135.504 304.578C135.079 302.114 135.097 300.046 135.115 297.977C141.002 292.445 148.139 287.753 152.536 281.218C164.105 264.02 174.807 246.21 185.256 228.294C198.818 205.039 210.896 180.873 225.287 158.159C239.968 134.986 257.605 113.871 278.151 95.4507C283.911 90.2868 290.071 85.5688 297.441 79.4983C290.368 77.4365 284.86 75.1882 279.141 74.2929C265.591 72.1716 251.966 70.4445 238.324 69.0085C214.645 66.5161 191.913 71.8532 169.32 78.004C145.478 84.4946 123.661 95.1973 104 110.095C82.0561 126.723 63.3512 146.265 55.0733 173.25C50.8858 186.9 50.4979 201.181 59.0187 213.98C63.4538 220.641 69.9826 223.672 78.025 224.097C100.073 225.261 117.669 215.235 134.224 202.322C159.32 182.747 176.763 157.216 190.317 128.943C195.596 117.933 198.89 105.971 203.076 94.4377C203.676 92.7829 204.205 91.1019 205.815 89.5826C205.815 93.4387 206.353 97.3843 205.728 101.136C201.529 126.361 192.067 149.7 178.679 171.315C167.182 189.876 152.618 205.764 133.38 216.745C116.879 226.163 99.174 230.995 80.0607 229.953C61.3487 228.933 50.8705 212.844 49.0453 197.652C46.5738 177.081 54.6719 159.945 65.8824 143.49C82.8395 118.6 106.299 101.566 132.254 87.6193C154.567 75.629 178.688 68.8515 203.807 66.0429C215.328 64.7547 227.099 63.3336 238.55 64.3339C255.813 65.8419 272.909 69.3372 290.045 72.18C293.946 72.8272 297.678 74.4518 301.566 75.2404C303.178 75.5674 305.241 75.3394 306.675 74.572C311.798 71.8307 316.677 68.6366 321.79 65.8762C323.086 65.1765 324.907 65.4491 326.487 65.275C325.492 66.5887 324.761 68.3343 323.452 69.1383C318.809 71.9904 313.969 74.5211 308.552 77.5365C313.512 81.0124 318.147 83.8015 322.25 87.2287C331.881 95.2734 339.547 104.803 341.893 117.547C344.767 133.157 340.673 147.082 331.009 159.51C317.154 177.328 298.969 188.61 277.545 195.051C273.971 196.125 270.469 197.442 266.011 198.962C269.867 201.846 273.133 203.772 275.767 206.346C289.697 219.957 294.664 236.419 290.643 255.483C287.604 269.891 284.03 284.198 281.455 298.685C280.59 303.548 281.608 308.923 282.624 313.889C283.467 318.009 287.622 319.851 291.642 318.13C296.339 316.119 300.746 313.432 305.785 311.407C306.26 313.16 306.229 314.543 306.198 315.925Z" fill="#834031"/>
<path d="M156.748 291.986C159.981 279.011 166.702 269.717 180.668 266.836C192.419 265.01 202.048 267.837 209.505 277.732C206.887 279.971 204.408 282.091 202.448 283.768C197.935 281.715 194.11 278.891 189.965 278.298C178.762 276.695 170.675 283.923 169.811 295.79C169.526 299.705 169.871 303.796 170.705 307.638C173.051 318.449 183.456 323.844 193.762 319.921C199.497 317.738 202.096 313.706 201.941 306.619C197.407 306.619 192.841 306.619 187.925 306.619C187.925 302.489 187.925 298.942 187.925 295.224C196.638 295.224 205.216 295.224 214.79 295.224C214.043 301.739 214.016 308.097 212.48 314.066C209.474 325.747 200.962 332.151 187.828 332.697C175.987 333.189 165.426 327.989 159.72 315.83C158.946 314.181 158.386 312.431 157.716 310.125C157.539 309.244 157.371 308.967 157.204 308.689C157.017 307.372 156.83 306.054 156.683 304.052C156.584 302.765 156.445 302.161 156.306 301.558C156.365 300.405 156.423 299.253 156.573 297.502C156.595 296.284 156.526 295.664 156.458 295.044C156.55 294.139 156.642 293.234 156.748 291.986Z" fill="#FBF9F8"/>
<path d="M40.3955 280.829C40.3955 276.527 40.3955 272.225 40.3955 267.186C50.7356 267.397 60.6519 265.923 70.2507 269.23C77.7477 271.813 81.4825 278.175 81.183 286.826C80.869 295.896 76.0275 301.844 65.9184 304.78C69.5258 309.566 72.9613 314.123 76.7284 319.184C78.3703 321.46 79.6806 323.234 80.9909 325.008C82.2459 327.068 83.5008 329.128 85.1244 331.793C81.0267 331.793 77.586 332.021 74.2016 331.683C72.8207 331.545 71.2708 330.435 70.3061 329.325C68.0298 326.707 66.0588 323.823 63.623 320.514C60.0244 315.412 56.767 310.843 53.5095 306.273C53.216 306.493 52.9226 306.713 52.6291 306.933C52.6291 310.687 52.6291 314.441 52.6291 318.195C52.6291 322.469 52.6291 326.743 52.6291 331.405C48.4282 331.405 44.773 331.405 40.5704 331.405C40.5704 324.201 40.5704 317.134 40.6175 309.156C40.575 299.106 40.4852 289.967 40.3955 280.829ZM62.9053 279.275C62.2686 279.257 61.6318 279.24 60.3376 279.121C59.8966 279.154 59.4555 279.188 58.1755 279.03C56.4042 279.151 54.6329 279.272 52.7654 279.4C52.7654 284.771 52.7654 289.774 52.7654 294.71C56.1373 294.71 59.1023 294.71 62.7656 294.74C66.9346 293.323 68.5981 290.392 68.3546 286.045C68.1635 282.633 66.7377 280.471 62.9053 279.275Z" fill="#FCFAFA"/>
<path d="M135.029 297.549C135.097 300.046 135.079 302.114 135.163 304.615C133.775 305.692 132.285 306.336 129.999 306.92C127.174 306.848 125.145 306.838 122.661 306.692C119.526 306.557 116.846 306.557 114.105 306.557C114.105 308.769 114.105 310.361 114.035 312.34C114.045 313.504 114.123 314.28 114.202 315.056C114.092 316.527 113.981 317.997 113.84 319.883C122.428 319.883 130.703 319.883 139.365 319.883C139.365 323.833 139.365 327.4 139.365 331.388C127.139 331.388 114.802 331.388 101.989 331.388C101.989 327.847 101.989 324.395 101.976 320.103C101.888 318.49 101.813 317.715 101.738 316.941C101.738 300.53 101.738 284.119 101.738 267.428C114.609 267.428 126.822 267.428 139.399 267.428C139.399 271.202 139.399 274.901 139.399 278.994C131.033 278.994 122.788 278.994 114.223 278.994C114.223 284.408 114.223 289.446 114.223 294.986C120.008 294.986 125.779 294.871 131.539 295.083C132.697 295.126 133.81 296.41 135.029 297.549Z" fill="#FBF9F8"/>
<path d="M262.064 271.635C269.243 288.901 276.248 305.842 283.541 323.012C284.715 325.86 285.6 328.479 286.614 331.482C282.392 331.482 278.487 331.482 274.397 331.482C274.46 331.535 274.254 331.45 274.235 331.335C272.743 321.911 266.367 320.63 258.469 321.841C257.819 321.94 257.131 321.93 256.478 321.842C248.731 320.803 242.152 321.573 241.914 331.629C237.393 331.629 233.431 331.629 228.701 331.629C231.699 324.388 234.547 317.45 237.441 310.531C242.904 297.469 248.341 284.395 253.929 271.387C254.758 269.458 256.356 267.859 257.598 266.107C259.029 267.841 260.459 269.575 262.064 271.635ZM255.991 291.738C253.694 297.909 251.398 304.079 249.048 310.391C255.207 310.391 260.578 310.391 266.691 310.391C263.712 302.604 260.955 295.396 257.929 287.483C257.095 289.303 256.693 290.18 255.991 291.738Z" fill="#FBF9F8"/>
<path d="M306.299 316.388C306.229 314.543 306.26 313.16 306.142 311.386C306.141 299.739 306.299 288.483 306.433 277.227C306.471 274.1 306.439 270.972 306.439 267.493C310.336 267.493 313.877 267.493 318.29 267.493C318.29 276.935 318.29 286.46 318.242 296.878C318.341 299.556 318.49 301.342 318.639 303.127C318.639 308.561 318.639 313.995 318.639 319.861C327.349 319.861 335.928 319.861 344.818 319.861C344.818 323.866 344.818 327.454 344.818 331.428C332.357 331.428 319.806 331.428 306.401 331.428C306.401 326.693 306.401 321.773 306.299 316.388Z" fill="#F9F6F4"/>
<path d="M318.937 303.043C318.49 301.342 318.341 299.556 318.309 297.335C324.252 291.351 330.216 285.938 335.86 280.21C339.914 276.095 343.499 271.519 347.392 267.238C348.304 266.236 349.614 265.595 350.741 264.788C351.159 265.071 351.578 265.353 351.997 265.636C351.321 267.248 351.027 269.214 349.91 270.416C339.767 281.339 329.481 292.129 318.937 303.043Z" fill="#884937"/>
<path d="M40.1003 280.953C40.4851 289.968 40.5748 299.106 40.5306 308.707C33.0205 300.266 32.768 288.273 40.1003 280.953Z" fill="#945C4D"/>
<path d="M52.9603 318.229C52.6292 314.441 52.6292 310.687 52.6292 306.933C52.9226 306.713 53.2161 306.493 53.5096 306.273C56.767 310.843 60.0244 315.412 63.347 320.324C60.0385 319.865 56.6649 319.063 52.9603 318.229Z" fill="#945C4D"/>
<path d="M101.316 316.938C101.813 317.715 101.888 318.49 101.897 319.65C95.9414 320.69 90.0395 321.251 84.1752 322.079C83.0573 322.237 82.0883 323.45 81.0208 324.592C79.6808 323.234 78.3705 321.46 77.0215 319.349C84.9535 318.319 92.9243 317.628 101.316 316.938Z" fill="#834031"/>
<path d="M114.584 315.053C114.124 314.28 114.045 313.504 114.357 312.214C117.537 310.076 120.327 308.451 123.117 306.827C125.145 306.838 127.174 306.848 129.619 306.991C125.013 309.765 119.989 312.408 114.584 315.053Z" fill="#884937"/>
<path d="M156.17 301.854C156.445 302.161 156.584 302.765 156.594 303.662C156.321 303.354 156.178 302.753 156.17 301.854Z" fill="#834031"/>
<path d="M156.269 295.303C156.527 295.664 156.595 296.284 156.479 297.167C156.223 296.807 156.151 296.185 156.269 295.303Z" fill="#834031"/>
<path d="M157.117 308.921C157.371 308.967 157.539 309.244 157.594 309.751C157.16 309.798 157.01 309.522 157.117 308.921Z" fill="#834031"/>
<path d="M62.0673 294.711C59.1023 294.711 56.1373 294.711 52.7654 294.711C52.7654 289.774 52.7654 284.771 52.7654 279.4C54.633 279.272 56.4042 279.151 58.4716 279.395C61.7714 284.323 62.5794 289.371 62.0673 294.711Z" fill="#884937"/>
<path d="M62.4164 294.726C62.5794 289.371 61.7714 284.323 58.8911 279.49C59.4555 279.188 59.8966 279.154 60.897 279.392C62.075 279.705 62.6936 279.748 63.3122 279.791C66.7377 280.471 68.1635 282.633 68.3546 286.045C68.5981 290.392 66.9347 293.323 62.4164 294.726Z" fill="#6A2001"/>
<path d="M63.1088 279.533C62.6937 279.748 62.0751 279.705 61.2258 279.442C61.6319 279.24 62.2687 279.257 63.1088 279.533Z" fill="#884937"/>
<path d="M122.661 306.692C120.327 308.451 117.537 310.076 114.426 311.827C114.105 310.361 114.105 308.769 114.105 306.557C116.846 306.557 119.526 306.557 122.661 306.692Z" fill="#6A2001"/>
<path d="M256.141 291.398C256.693 290.18 257.095 289.303 257.929 287.483C260.955 295.396 263.712 302.604 266.691 310.391C260.577 310.391 255.207 310.391 249.048 310.391C251.397 304.079 253.694 297.909 256.141 291.398Z" fill="#742D10"/>
</svg>
