<svg width="184" height="110" viewBox="0 0 184 110" fill="none" xmlns="http://www.w3.org/2000/svg">
<mask id="mask0_106_208" style="mask-type:alpha" maskUnits="userSpaceOnUse" x="0" y="0" width="184" height="110">
<path d="M0.977368 47.1912L163.469 0.681853L183.392 63.0287L20.8995 109.538L0.977368 47.1912Z" fill="black"/>
</mask>
<g mask="url(#mask0_106_208)">
<path d="M10.8376 51.5736C10.6455 49.5293 12.1456 47.397 14.1816 46.8142L25.2506 43.646L29.4047 88.089L18.3358 91.2572C16.2981 91.8404 14.4904 90.6566 14.2994 88.6103L10.8376 51.5736ZM47.7347 41.0127C47.5442 38.9679 49.0427 36.8361 51.0787 36.2534L62.1477 33.0851L66.3018 77.5281L55.2328 80.6964C53.1952 81.2796 51.3874 80.0958 51.1964 78.0494L47.7347 41.0127ZM121.53 19.8905C121.338 17.8462 122.835 15.7148 124.874 15.1311L135.943 11.9629L140.098 56.4059L129.027 59.5746C126.989 60.1578 125.183 58.9736 124.992 56.9272L121.53 19.8905ZM65.8378 32.0289L76.9068 28.8607C78.9445 28.2775 80.7522 29.4613 80.9432 31.5076L84.4049 68.5443C84.5976 70.5902 83.0986 72.7205 81.0609 73.3037L69.992 76.4719L65.8378 32.0289ZM139.634 10.9067L150.703 7.7385C152.74 7.15527 154.548 8.33908 154.739 10.3854L158.199 47.4226C158.392 49.4685 156.894 51.5983 154.857 52.1815L143.786 55.3502L139.634 10.9067ZM84.6334 30.4514C84.4413 28.4071 85.9381 26.2757 87.9758 25.6925L99.0463 22.5238L103.199 66.9673L92.1299 70.1355C90.0922 70.7187 88.2845 69.5349 88.0951 67.4881L84.6317 30.4519L84.6334 30.4514ZM102.735 21.468L113.805 18.2994C115.843 17.7161 117.649 18.9004 117.84 20.9468L123.034 76.5023C123.223 78.5476 121.726 80.679 119.688 81.2622L108.618 84.4309L102.735 21.468ZM31.7097 72.2186L46.4688 67.9942L47.5079 79.1052C47.6989 81.1515 46.1999 83.2818 44.1639 83.8646L33.0933 87.0332L31.7085 72.2206L31.7097 72.2186ZM88.788 74.896L103.546 70.672L104.931 85.4862L93.8618 88.6544C91.8225 89.2381 90.0164 88.0538 89.8254 86.0074L88.788 74.896ZM129.884 66.67L130.728 75.6934C130.763 76.0814 130.668 76.2174 130.282 76.3281L129.432 76.5714C129.045 76.6821 128.929 76.6065 128.893 76.2185L128.05 67.1951C128.015 66.8087 128.109 66.6711 128.496 66.5604L129.346 66.3172C129.733 66.2065 129.849 66.2836 129.884 66.67ZM134.171 71.6934L133.997 71.7431C133.812 71.7962 133.763 71.8646 133.782 72.0515L134.033 74.7474C134.068 75.1354 133.972 75.2719 133.587 75.3821L132.735 75.6258C132.35 75.7361 132.234 75.6605 132.197 75.273L131.353 66.2496C131.318 65.8632 131.416 65.7246 131.801 65.6144L133.556 65.1121C135.577 64.5335 136.563 65.005 136.731 66.8062L136.873 68.3155C137.041 70.1183 136.192 71.1148 134.171 71.6934ZM133.34 67.3395L133.563 69.7017C133.579 69.8895 133.637 69.9273 133.824 69.8738L134.103 69.7938C134.753 69.6078 135.022 69.2568 134.959 68.5757L134.869 67.6284C134.806 66.9489 134.488 66.7643 133.837 66.9508L133.557 67.0308C133.372 67.0838 133.323 67.1523 133.34 67.3395ZM139.851 66.9695L141.698 68.0316C142.664 68.577 142.909 69.0002 142.992 69.8949L143.016 70.1348C143.172 71.8169 142.621 72.9341 140.692 73.4862C138.765 74.0378 138.052 73.4337 137.851 71.2831L137.827 71.0179C137.791 70.6299 137.887 70.4918 138.273 70.3816L139.176 70.123C139.563 70.0123 139.68 70.0894 139.714 70.4759L139.769 71.0641C139.819 71.5976 140.052 71.7503 140.517 71.6173C140.984 71.4838 141.177 71.2242 141.134 70.7434L141.109 70.4884C141.074 70.1139 140.976 69.9514 140.444 69.6512L138.715 68.6797C137.75 68.1477 137.521 67.7455 137.437 66.8508L137.409 66.5593C137.253 64.8773 137.804 63.7585 139.731 63.2069C141.66 62.6548 142.373 63.2605 142.574 65.4095L142.599 65.6763C142.634 66.0642 142.537 66.2007 142.152 66.311L141.247 66.57C140.862 66.6803 140.746 66.6047 140.709 66.2172L140.654 65.6305C140.604 65.0954 140.373 64.9438 139.907 65.0773C139.442 65.2103 139.246 65.4704 139.292 65.9508L139.313 66.1778C139.348 66.5658 139.447 66.7298 139.851 66.9695ZM146.715 61.8526C146.68 61.4662 146.775 61.3286 147.161 61.2179L148.011 60.9747C148.398 60.864 148.515 60.9411 148.55 61.3275L149.177 68.0429C149.378 70.192 148.814 71.1616 146.885 71.7137C144.958 72.2653 144.245 71.6612 144.044 69.5106L143.417 62.7967C143.382 62.4103 143.478 62.2723 143.863 62.162L144.714 61.9183C145.099 61.8081 145.216 61.8852 145.253 62.2712L145.91 69.3065C145.96 69.84 146.206 69.989 146.711 69.8443C147.202 69.7039 147.422 69.4214 147.372 68.8879L146.715 61.8526ZM153.883 65.3794C153.92 65.4793 153.962 65.4929 154.028 65.4738C154.093 65.4552 154.133 65.4184 154.149 65.3031L154.77 59.3974C154.797 59.1003 154.911 58.9999 155.244 58.9045L156.534 58.5352C156.919 58.425 157.036 58.5021 157.072 58.8881L157.916 67.9115C157.951 68.2995 157.853 68.4364 157.468 68.5467L156.857 68.7215C156.472 68.8318 156.354 68.7566 156.319 68.3687L155.916 64.0438C155.904 63.9246 155.875 63.9042 155.795 63.9269C155.742 63.9423 155.69 63.986 155.685 64.0826L155.154 68.7582C155.117 69.0972 154.982 69.2582 154.597 69.3685L154.236 69.4717C153.836 69.5861 153.68 69.5083 153.584 69.2075L152.214 65.0745C152.178 64.9895 152.149 64.9706 152.082 64.9897C152.003 65.0125 151.979 65.0483 151.99 65.1675L152.395 69.4919C152.43 69.8798 152.335 70.0159 151.948 70.1266L151.337 70.3015C150.951 70.4121 150.834 70.3366 150.799 69.9486L149.955 60.9252C149.92 60.5388 150.016 60.4007 150.402 60.2905L151.506 59.9742C151.971 59.8412 152.153 59.8997 152.29 60.3402L153.881 65.3798L153.883 65.3794ZM164.466 3.79916C165.016 5.52149 164.016 7.33044 162.233 7.84064C161.807 7.96118 161.36 8.00007 160.917 7.95507C160.475 7.91008 160.045 7.78209 159.652 7.57841C159.26 7.37474 158.913 7.09938 158.631 6.76805C158.349 6.43673 158.137 6.05593 158.008 5.64744C157.458 3.92511 158.458 2.11616 160.241 1.60595C162.023 1.09575 163.915 2.07683 164.466 3.79916Z" fill="#6D2732"/>
</g>
</svg>
