<svg width="157" height="149" viewBox="0 0 157 149" fill="none" xmlns="http://www.w3.org/2000/svg">
<path d="M67.3353 121.53C73.453 108.315 74.7615 96.0886 70.2587 94.2213C65.7554 92.3542 57.1457 101.553 51.0285 114.768C44.9108 127.983 43.6021 140.21 48.1051 142.077C52.6082 143.944 61.2179 134.745 67.3353 121.53Z" fill="#6D2732"/>
<path d="M42.4682 107.928C55.164 99.9421 63.2497 90.3264 60.5284 86.4514C57.8068 82.5762 45.3088 85.909 32.6133 93.8956C19.9175 101.882 11.832 111.497 14.5531 115.373C17.2747 119.248 29.7724 115.915 42.4682 107.928Z" fill="#6D2732"/>
<path d="M29.2699 83.7893C44.5124 83.5678 56.8074 79.6165 56.7317 74.9639C56.6564 70.3115 44.2388 66.7198 28.9963 66.9416C13.754 67.1631 1.45886 71.1144 1.53437 75.7669C1.60985 80.4194 14.0275 84.0111 29.2699 83.7893Z" fill="#6D2732"/>
<path d="M60.1347 63.3779C62.7292 59.4255 54.335 50.0496 41.3863 42.4362C28.4373 34.8227 15.8369 31.8551 13.2427 35.8075C10.6484 39.7599 19.0426 49.1356 31.9915 56.749C44.9403 64.3624 57.5408 67.3301 60.1347 63.3779Z" fill="#6D2732"/>
<path d="M69.6528 55.3081C74.0927 53.3102 72.3853 41.1278 65.8393 28.098C59.2933 15.0683 50.3874 6.12535 45.9474 8.1234C41.5075 10.1215 43.2148 22.304 49.761 35.3338C56.307 48.3635 65.213 57.3063 69.6528 55.3081Z" fill="#6D2732"/>
<path d="M82.2166 53.4198C87.093 54.0111 92.6163 42.889 94.5532 28.5783C96.4902 14.2676 94.1071 2.18718 89.2307 1.59599C84.3542 1.00481 78.831 12.1267 76.894 26.4375C74.9571 40.748 77.3402 52.8286 82.2166 53.4198Z" fill="#6D2732"/>
<path d="M118.414 43.6682C128.219 32.6207 133.116 21.239 129.351 18.2462C125.587 15.2535 114.587 21.7831 104.782 32.8306C94.9773 43.8781 90.0805 55.2599 93.845 58.2525C97.6096 61.2452 108.61 54.7158 118.414 43.6682Z" fill="#6D2732"/>
<path d="M129.907 68.5836C144.466 64.3051 155.086 57.2344 153.628 52.7908C152.17 48.3471 139.186 48.2133 124.628 52.4917C110.069 56.7702 99.4495 63.841 100.907 68.2846C102.365 72.7282 115.349 72.8622 129.907 68.5836Z" fill="#6D2732"/>
<path d="M125.325 95.4261C140.016 99.2768 152.989 98.7633 154.301 94.2789C155.614 89.7949 144.768 83.0383 130.076 79.1873C115.385 75.3368 102.412 75.8502 101.1 80.3346C99.7879 84.8186 110.634 91.5755 125.325 95.4261Z" fill="#6D2732"/>
<path d="M131.15 129.524C134.815 126.423 129.552 115.189 119.393 104.432C109.234 93.6748 98.0272 87.4682 94.3617 90.5689C90.6961 93.6698 95.9599 104.904 106.119 115.661C116.278 126.418 127.484 132.625 131.15 129.524Z" fill="#6D2732"/>
<path d="M91.556 147.338C96.4108 146.606 98.4006 134.462 96 120.214C93.5995 105.966 87.7175 95.0105 82.8626 95.7432C78.0078 96.4758 76.0181 108.62 78.4186 122.868C80.8192 137.115 86.7011 148.071 91.556 147.338Z" fill="#6D2732"/>
</svg>
