<svg width="150" height="150" viewBox="0 0 150 150" fill="none" xmlns="http://www.w3.org/2000/svg">
<path d="M150 0H0V133.034H150V0Z" fill="#CC1C60"/>
<path fill-rule="evenodd" clip-rule="evenodd" d="M123.355 25.046C122.29 25.597 121.226 26.1479 119.934 26.8179C121.855 27.6475 123.543 28.6348 125.086 29.7781C126.188 30.5944 127.494 31.8345 128.206 32.4651C135.575 39.0012 133.423 47.5526 131.778 50.7547C130.92 52.4236 129.738 53.968 128.425 55.4433C123.918 60.5116 118.002 63.9281 111.25 66.1989C108.663 67.0709 105.991 67.7378 103.257 68.5278C103.99 68.8903 104.765 69.2084 105.459 69.6256C109.677 72.17 111.864 75.8908 113.113 80.1383C114.146 83.654 113.271 87.0533 112.353 90.463C111.378 94.0949 110.344 97.72 109.619 101.39C109.253 103.233 109.311 105.192 109.55 107.063C109.855 109.44 111.759 110.199 114.262 109.211C116.591 108.291 118.612 106.967 120.47 105.456C122.838 103.534 125.213 101.608 127.407 99.5359C129.397 97.655 131.371 95.6373 133.276 93.6845C134.024 92.9184 134.677 92.1733 135.574 91.5402C137.299 90.3234 137.463 92.0029 136.276 93.0552C132.525 96.3824 129.1 99.9908 125.394 103.356C122.41 106.068 119.456 108.872 115.446 110.442C111.775 111.878 107.688 111.058 105.077 107.908C103.353 105.829 102.37 103.52 101.846 101.085C101.495 99.4709 101.676 97.7473 101.784 96.0818C102.019 92.4362 103.241 88.9616 104.179 85.4323C104.822 83.0145 105.513 80.5624 105.702 78.0967C105.883 75.7643 106.33 73.2815 104.591 71.1235C103.577 69.865 102.2 69.3554 100.538 69.3725C98.2942 69.3965 96.05 69.4717 93.8058 69.5093C92.7068 69.5264 92.1554 68.8561 91.9703 68.0525C91.7813 67.2351 92.3366 66.5203 93.2196 66.4177C94.6618 66.2468 96.1425 66.257 97.604 66.298C98.3289 66.3186 99.0654 66.5272 99.7633 66.7392C102.385 67.536 104.93 67.2385 107.321 66.1715C116.965 61.8761 122.772 55.0124 124.469 45.5257C125.101 41.9963 124.812 38.491 123.351 35.1189C122.213 32.4993 120.331 30.3824 117.447 28.6721C114.771 31.0801 111.956 33.4227 109.384 35.9637C103.65 41.6236 99.7402 48.3197 95.9767 55.0842C93.4124 59.6908 90.96 64.3521 88.2646 68.9006C84.3507 75.5112 79.8585 81.8107 74.4407 87.5458C71.4947 90.6579 68.4831 93.7461 65.2363 96.6085C60.3546 100.904 54.8675 104.536 48.6477 107.22C44.0744 109.194 39.316 110.623 34.2029 110.907C31.9973 111.03 29.7569 111.273 27.5821 111.064C23.5448 110.674 19.5847 109.813 16.469 107.279C14.4137 105.61 13.3109 103.476 13.5191 100.924C13.6155 99.7582 13.6811 98.6194 14.5448 97.6071C16.1721 95.6954 19.361 95.0046 21.9369 96.0955C24.2274 97.0633 25.1335 99.1632 24.3276 101.711C24.1194 102.361 23.8417 102.997 23.5525 103.626C22.7119 105.449 23.1091 107.114 25.0217 108.106C26.3366 108.79 27.8944 109.365 29.3944 109.478C35.3096 109.919 41.0166 108.992 46.2762 106.526C48.6014 105.435 50.7839 104.04 52.8315 102.566C58.3379 98.5886 62.3443 93.493 65.9343 88.134C68.2865 84.6252 70.5153 81.0514 72.7248 77.4708C74.9497 73.856 76.9819 70.1523 79.2723 66.5716C82.9009 60.9117 86.4523 55.2005 90.9716 50.0331C93.4549 47.1946 95.8456 44.2911 98.3752 41.4834C99.5166 40.2146 100.893 39.1065 102.17 37.9335C103.388 36.8152 104.564 35.6593 105.852 34.606C107.529 33.2312 109.288 31.9282 111.031 30.6184C112.423 29.5719 113.846 28.564 115.303 27.5059C112.839 26.1264 100.332 23.5351 88.7351 23.5351C84.323 23.5351 76.2777 24.1045 65.7453 26.8698C62.2506 27.7874 58.8519 28.8893 55.5592 30.1885C50.9135 32.0212 46.4786 34.2479 42.2813 36.9075C34.4382 41.8766 27.7441 47.7759 23.4099 55.5254C21.5281 58.8837 20.3713 62.4473 20.6297 66.2536C20.8186 68.9861 21.2621 71.7049 23.2286 73.9518C25.7389 76.8142 29.2711 77.4913 33.1078 77.2348C39.397 76.8176 44.8148 74.41 49.8315 71.2158C51.6052 70.0873 53.2595 68.8014 54.9022 67.5224C56.5063 66.2741 58.1644 65.0498 59.5525 63.6237C62.0127 61.0998 64.4728 58.5486 66.586 55.799C69.0268 52.6151 71.2865 49.2944 73.2569 45.8676C74.9921 42.8479 76.2993 39.6229 77.6451 36.439C78.3546 34.7633 78.7248 32.9781 79.2993 31.2545C79.3996 30.9467 79.58 30.3769 80.0308 30.4234C80.6011 30.4823 80.5487 31.0527 80.5217 31.3468C80.3559 33.1354 80.2441 34.9445 79.8392 36.6955C78.3392 43.1659 75.6901 49.2807 72.1926 55.0945C69.6554 59.3078 66.6322 63.2167 62.9613 66.7461C57.5474 71.9477 51.2004 75.7917 43.5423 77.8846C39.2351 79.0576 34.789 79.5638 30.3507 79.1944C26.8109 78.8969 23.8032 77.269 21.7672 74.54C20.3019 72.577 19.2993 70.4532 19.1104 68.073C19.0217 66.9786 18.7672 65.874 18.8675 64.7933C19.0101 63.2543 19.334 61.7222 19.7119 60.2106C20.3867 57.526 21.6245 55.0124 23.2055 52.6664C24.5705 50.6452 26.113 48.7061 27.7209 46.8252C29.0397 45.2828 30.4818 43.8089 32.0281 42.4443C33.6207 41.0388 35.3559 39.7495 37.1181 38.508C39.3122 36.9623 41.5333 35.4336 43.8585 34.0485C46.2874 32.6043 48.8031 31.2859 51.4144 30.1399C53.2537 29.3328 56.1901 28.0312 59.1434 27.0237C63.0828 25.6797 67.0248 24.6883 68.1654 24.4424C76.2168 22.7068 82.7389 21.8628 90.8902 21.8877C91.9005 21.8908 102.545 22.3487 111.79 24.4144C113.62 24.8234 115.434 25.3627 117.22 25.9362C117.937 26.1677 118.434 26.0504 119.055 25.7098C121.319 24.4704 123.625 23.2902 125.927 22.1015C126.675 21.7137 127.172 21.9001 127.268 22.7947C126.906 23.161 126.636 23.4807 126.281 23.6644C125.325 24.1562 124.334 24.5895 123.355 25.046Z" fill="#D27C8C"/>
<path fill-rule="evenodd" clip-rule="evenodd" d="M100.234 99.0637L96.8636 106.83H103.585L100.234 99.0637ZM20.4522 96.1876V101.54H23.5255C24.3893 101.54 25.1258 101.297 25.7427 100.811C26.3597 100.326 26.6682 99.6143 26.6682 98.6773C26.6682 97.8121 26.3674 97.1794 25.762 96.7827C25.1566 96.386 24.4008 96.1876 23.4908 96.1876H20.4522ZM119.105 92.0256H123.748V110.158H134.19V114.21H119.105V92.0256ZM39.6476 92.0256H54.3314V96.1226H44.2903V101.54H52.5499V105.592H44.2903V110.158H54.3314V114.21H39.6476V92.0256ZM15.8096 92.0256H23.0551C25.8468 92.0256 27.9908 92.5899 29.4792 93.7253C30.9715 94.8607 31.7157 96.3552 31.7157 98.2122C31.7157 99.9255 31.2145 101.403 30.2119 102.644C29.2132 103.889 27.7209 104.638 25.7427 104.898L33.3893 114.21H27.9253L20.7684 105.438H20.4522V114.21H15.8096V92.0256ZM99.4471 91.6528H101.02L111.636 114.21H106.484L105.054 110.791H95.3983L93.9677 114.21H88.816L99.4471 91.6528ZM72.5666 91.6528C74.6142 91.6528 76.334 91.964 77.726 92.5899C79.1142 93.2123 80.4098 94.2417 81.6091 95.6746L78.3083 98.0891C76.8777 96.5228 75.0229 95.7362 72.7402 95.7362C70.9008 95.7362 69.3199 96.3654 68.0011 97.624C66.6785 98.8825 66.0191 100.716 66.0191 103.116C66.0191 105.592 66.6438 107.436 67.897 108.65C69.1463 109.86 70.7736 110.466 72.7749 110.466C74.6373 110.466 76.0756 110.038 77.0859 109.183C78.1001 108.325 78.6283 107.128 78.6746 105.592H72.9484V101.54H83.4253V103.752C83.4253 107.258 82.4651 109.939 80.5448 111.789C78.6245 113.639 75.9137 114.566 72.4085 114.566C68.9767 114.566 66.1695 113.502 63.9947 111.379C61.816 109.255 60.7286 106.502 60.7286 103.116C60.7286 99.7545 61.8507 97.005 64.0911 94.8641C66.3314 92.7233 69.154 91.6528 72.5666 91.6528Z" fill="white"/>
<path d="M22.1151 141.658C21.6219 140.892 20.4204 140.1 18.8622 140.1C16.8412 140.1 15.2544 141.042 15.2544 142.629C15.2544 143.874 16.3021 144.558 18.507 145.679C19.7105 146.295 20.5438 146.692 20.5438 147.471C20.5438 148.182 19.7876 148.675 18.7388 148.675C17.4427 148.675 16.6411 148.128 16.0862 147.458L14.8384 148.36C15.6088 149.344 16.9492 150 18.5841 150C20.7131 150 22.3461 149.085 22.3461 147.266C22.3461 145.98 21.3138 145.269 19.3712 144.311C17.7667 143.532 17.0259 143.231 17.0259 142.533C17.0259 141.89 17.7512 141.384 18.785 141.384C19.8493 141.384 20.6055 141.931 20.9444 142.41L22.1151 141.658Z" fill="#A07840"/>
<path d="M30.7502 140.264H29.1484V149.836H30.7502V140.264Z" fill="#A07840"/>
<path d="M45.5093 146.745L38.7855 140.141H38.3081V149.836H39.8945V143.368L46.7108 149.959H47.0956V140.264H45.5093V146.745Z" fill="#A07840"/>
<path d="M55.8237 145.036C55.8237 142.574 57.5663 141.452 59.2159 141.452C60.4344 141.452 61.2361 141.903 61.8067 142.464C61.9301 142.369 62.7472 141.753 62.8706 141.657C61.9147 140.592 60.835 140.1 59.1546 140.1C56.2244 140.1 54.0522 142.15 54.0522 145.063C54.0522 147.977 56.1781 150 59.1237 150C60.8196 150 61.9918 149.495 62.7935 148.647L61.8376 147.745C61.2823 148.292 60.3418 148.634 59.2776 148.634C57.4891 148.634 55.8237 147.485 55.8237 145.036Z" fill="#A07840"/>
<path d="M71.1208 141.671H75.639V140.264H69.519V149.836H75.639V148.456H71.1208V145.938H74.8219V144.559H71.1208V141.671Z" fill="#A07840"/>
<path d="M93.6345 149.836V140.073L89.7349 141.973L90.3981 143.081L92.0481 142.329V149.836H93.6345Z" fill="#A07840"/>
<path d="M101.207 149.644C101.438 149.781 102.147 149.986 103.026 149.986C107.283 149.986 108.145 146.799 108.145 144.571C108.145 141.247 106.034 140.223 104.368 140.223C101.915 140.223 100.637 141.931 100.637 143.573C100.637 145.119 101.885 146.567 103.936 146.567C105.124 146.567 106.111 146.075 106.544 145.078C106.544 147.635 105.032 148.729 103.103 148.729C102.547 148.729 101.9 148.565 101.608 148.456L101.207 149.644ZM106.404 143.313C106.404 144.462 105.463 145.256 104.245 145.256C102.995 145.256 102.239 144.462 102.239 143.45C102.239 142.355 103.134 141.52 104.353 141.52C105.649 141.52 106.404 142.382 106.404 143.313Z" fill="#A07840"/>
<path d="M117.168 141.603H121.115L121.407 140.264H115.95L114.917 144.995L115.518 145.788C116.551 145.391 117.4 145.063 118.355 145.063C119.728 145.063 120.314 145.802 120.314 146.801C120.314 147.8 119.574 148.661 118.17 148.661C117.214 148.661 116.366 148.155 115.796 147.28L114.624 148.073C115.58 149.631 116.998 150 118.263 150C120.237 150 121.916 148.784 121.916 146.609C121.916 144.899 120.637 143.752 118.695 143.765C117.893 143.765 117.122 143.984 116.628 144.189L117.168 141.603Z" fill="#A07840"/>
<path d="M131.184 148.538L133.035 146.787C134.222 145.638 135.162 144.558 135.162 143.053C135.162 141.261 133.606 140.1 131.755 140.1C129.873 140.1 128.317 141.411 128.317 143.19C128.317 143.395 128.333 143.586 128.394 143.792H129.842C129.796 143.532 129.78 143.244 129.78 143.135C129.78 142.164 130.644 141.384 131.724 141.384C132.742 141.384 133.622 142.082 133.622 143.053C133.622 144.147 132.758 145.05 131.878 145.912L128.194 149.549L128.317 149.836H135.116V148.538H131.184Z" fill="#A07840"/>
</svg>
