<svg width="180" height="150" viewBox="0 0 180 150" fill="none" xmlns="http://www.w3.org/2000/svg">
<mask id="mask0_407_49" style="mask-type:alpha" maskUnits="userSpaceOnUse" x="16" y="45" width="148" height="60">
<path d="M16 45H164V105H16V45Z" fill="black"/>
</mask>
<g mask="url(#mask0_407_49)">
<path d="M23.0597 51.3525C23.4445 49.5015 25.2649 48 27.1194 48H37.2011L28.8169 88.2345H18.7352C16.8792 88.2345 15.6864 86.7345 16.0726 84.882L23.0597 51.3525ZM56.6661 51.3525C57.0524 49.5015 58.8713 48 60.7257 48H70.8075L62.4233 88.2345H52.3415C50.4856 88.2345 49.2927 86.7345 49.679 84.882L56.6661 51.3525ZM123.88 51.3525C124.265 49.5015 126.083 48 127.94 48H138.022L129.637 88.2345H119.554C117.698 88.2345 116.507 86.7345 116.893 84.882L123.88 51.3525ZM74.1686 48H84.2503C86.1062 48 87.2991 49.5 86.9128 51.3525L79.9258 84.882C79.541 86.7345 77.722 88.2345 75.8661 88.2345H65.7844L74.1686 48ZM141.383 48H151.465C153.32 48 154.513 49.5 154.127 51.3525L147.138 84.882C146.754 86.7345 144.936 88.2345 143.08 88.2345H132.997L141.383 48ZM90.2739 51.3525C90.6587 49.5015 92.4762 48 94.3321 48H104.415L96.0296 88.2345H85.9479C84.092 88.2345 82.8991 86.7345 83.2868 84.882L90.2724 51.3525H90.2739ZM107.775 48H117.858C119.714 48 120.905 49.5 120.519 51.3525L110.039 101.647C109.652 103.499 107.834 105 105.978 105H95.895L107.775 48ZM34.9722 74.823H48.4151L46.3194 84.882C45.9331 86.7345 44.1142 88.2345 42.2598 88.2345H32.1765L34.9708 74.8245L34.9722 74.823ZM81.8897 91.5885H95.3311L92.5368 105H82.4551C80.5977 105 79.4063 103.5 79.7926 101.647L81.8897 91.5885ZM118.378 94.707L116.676 102.876C116.602 103.227 116.486 103.323 116.134 103.323H115.36C115.008 103.323 114.931 103.227 115.005 102.876L116.707 94.707C116.781 94.3575 116.896 94.26 117.248 94.26H118.022C118.375 94.26 118.452 94.3575 118.378 94.707ZM120.615 100.218H120.457C120.288 100.218 120.229 100.266 120.195 100.436L119.686 102.876C119.612 103.227 119.495 103.323 119.144 103.323H118.369C118.018 103.323 117.941 103.227 118.014 102.876L119.716 94.707C119.79 94.3575 119.908 94.26 120.259 94.26H121.857C123.698 94.26 124.395 94.9245 124.055 96.555L123.771 97.9215C123.43 99.5535 122.457 100.218 120.615 100.218ZM121.083 96.1695L120.639 98.3085C120.602 98.478 120.641 98.526 120.811 98.526H121.065C121.657 98.526 121.976 98.2845 122.104 97.668L122.282 96.81C122.411 96.195 122.195 95.952 121.601 95.952H121.347C121.178 95.952 121.119 96 121.083 96.1695ZM126.615 97.4865L127.873 98.889C128.533 99.6135 128.625 100.048 128.456 100.858L128.412 101.076C128.094 102.598 127.336 103.445 125.579 103.445C123.824 103.445 123.39 102.732 123.796 100.785L123.846 100.545C123.92 100.194 124.037 100.096 124.388 100.096H125.211C125.563 100.096 125.64 100.194 125.566 100.543L125.455 101.076C125.354 101.559 125.508 101.752 125.932 101.752C126.356 101.752 126.587 101.572 126.679 101.137L126.726 100.907C126.797 100.568 126.759 100.399 126.395 100.001L125.211 98.7075C124.548 97.995 124.463 97.5825 124.632 96.7725L124.687 96.5085C125.005 94.986 125.763 94.1385 127.518 94.1385C129.275 94.1385 129.709 94.8525 129.303 96.798L129.253 97.0395C129.179 97.3905 129.062 97.4865 128.711 97.4865H127.887C127.536 97.4865 127.459 97.3905 127.531 97.0395L127.642 96.5085C127.743 96.024 127.591 95.832 127.166 95.832C126.743 95.832 126.51 96.012 126.42 96.447L126.377 96.6525C126.303 97.0035 126.341 97.173 126.615 97.4865ZM133.707 94.707C133.781 94.3575 133.897 94.26 134.249 94.26H135.023C135.375 94.26 135.452 94.3575 135.378 94.707L134.112 100.787C133.706 102.732 132.976 103.445 131.22 103.445C129.464 103.445 129.031 102.732 129.436 100.785L130.703 94.707C130.777 94.3575 130.894 94.26 131.245 94.26H132.02C132.371 94.26 132.448 94.3575 132.375 94.707L131.048 101.076C130.947 101.559 131.113 101.752 131.573 101.752C132.02 101.752 132.279 101.559 132.38 101.076L133.707 94.707ZM138.748 99.6255C138.753 99.723 138.784 99.7455 138.845 99.7455C138.904 99.7455 138.947 99.723 138.991 99.6255L141.084 94.575C141.186 94.32 141.307 94.26 141.611 94.26H142.786C143.137 94.26 143.214 94.3575 143.141 94.707L141.439 102.876C141.365 103.227 141.247 103.323 140.896 103.323H140.339C139.989 103.323 139.91 103.227 139.984 102.876L140.801 98.961C140.823 98.853 140.804 98.8275 140.732 98.8275C140.683 98.8275 140.628 98.853 140.598 98.937L138.908 102.925C138.787 103.215 138.631 103.323 138.281 103.323H137.952C137.588 103.323 137.479 103.215 137.479 102.925L137.437 98.9355C137.43 98.8515 137.41 98.8275 137.35 98.8275C137.277 98.8275 137.248 98.853 137.225 98.961L136.41 102.876C136.336 103.227 136.22 103.323 135.868 103.323H135.312C134.96 103.323 134.883 103.227 134.957 102.876L136.659 94.707C136.733 94.3575 136.85 94.26 137.2 94.26H138.207C138.63 94.26 138.766 94.3575 138.763 94.7805L138.747 99.6255H138.748ZM164 48C164 49.6575 162.683 51 161.059 51C160.672 50.9988 160.288 50.9203 159.931 50.7689C159.573 50.6174 159.249 50.3961 158.976 50.1175C158.703 49.8389 158.486 49.5085 158.339 49.1452C158.192 48.7818 158.117 48.3927 158.119 48C158.119 46.3425 159.436 45 161.059 45C162.683 45 164 46.3425 164 48Z" fill="#1D2633"/>
</g>
</svg>
