<svg width="180" height="150" viewBox="0 0 180 150" fill="none" xmlns="http://www.w3.org/2000/svg">
<path fill-rule="evenodd" clip-rule="evenodd" d="M19.5141 58.375V94H10V58.375H19.5141Z" fill="#283841"/>
<path fill-rule="evenodd" clip-rule="evenodd" d="M24.271 58.375H44.4884C51.0565 58.375 56.381 63.6916 56.381 70.25C56.381 76.8084 51.0565 82.125 44.4884 82.125H33.7851V94H24.271V58.375ZM33.7851 72.625H44.4884C45.8021 72.625 46.8669 71.5617 46.8669 70.25C46.8669 68.9383 45.8021 67.875 44.4884 67.875H33.7851V72.625Z" fill="#283841"/>
<path fill-rule="evenodd" clip-rule="evenodd" d="M92.059 58.375V76.7812C92.059 81.0442 95.5198 84.5 99.7891 84.5C104.058 84.5 107.519 81.0442 107.519 76.7812V58.375H117.034V76.7812C117.034 86.2909 109.313 94 99.7891 94C90.2654 94 82.5449 86.2909 82.5449 76.7812V58.375H92.059Z" fill="#283841"/>
<path fill-rule="evenodd" clip-rule="evenodd" d="M59.9491 75C59.9491 65.8183 67.4034 58.375 76.5987 58.375H78.9772V67.875H76.5987C72.6578 67.875 69.4632 71.065 69.4632 75V76.1875C69.4632 86.025 61.4764 94 51.6243 94H50.4351V84.5H51.6243C56.222 84.5 59.9491 80.7784 59.9491 76.1875V75Z" fill="#283841"/>
<path d="M170.55 59.5625C170.55 61.53 168.953 63.125 166.982 63.125C165.012 63.125 163.415 61.53 163.415 59.5625C163.415 57.595 165.012 56 166.982 56C168.953 56 170.55 57.595 170.55 59.5625Z" fill="#283841"/>
<path d="M127.249 93.9995L131.789 75.0167L135.164 86.4368C137.176 93.2482 146.839 93.2482 148.852 86.4368L152.226 75.0167L156.766 93.9995H166.548L159.409 64.15C157.712 57.0516 147.694 56.7887 145.625 63.7885L142.008 76.0286L138.391 63.7885C136.322 56.7888 126.304 57.0515 124.606 64.15L117.468 93.9995H127.249Z" fill="#283841"/>
</svg>
