<svg width="180" height="150" viewBox="0 0 180 150" fill="none" xmlns="http://www.w3.org/2000/svg">
<path d="M95.6037 107.566C95.7044 97.2752 93.0953 88.9066 89.7766 88.8741C86.4576 88.8418 83.6856 97.158 83.5851 107.449C83.4844 117.74 86.0934 126.109 89.4122 126.141C92.7312 126.174 95.5032 117.857 95.6037 107.566Z" fill="black"/>
<path d="M76.3552 105.23C82.004 96.6277 84.3341 88.177 81.5598 86.3552C78.7853 84.5335 71.9569 90.0305 66.3083 98.6333C60.6595 107.236 58.3294 115.687 61.1037 117.508C63.8782 119.33 70.7063 113.833 76.3552 105.23Z" fill="black"/>
<path d="M61.4033 92.8876C70.8066 88.7051 77.3358 82.856 75.9867 79.8234C74.6379 76.7908 65.9217 77.7231 56.5184 81.9059C47.1152 86.0884 40.5859 91.9375 41.9349 94.9701C43.2838 98.0028 52.0001 97.0704 61.4033 92.8876Z" fill="black"/>
<path d="M74.858 71.3187C75.363 68.0383 67.5264 64.1099 57.3549 62.5442C47.1831 60.9786 38.528 62.3689 38.0231 65.6493C37.5182 68.9297 45.3547 72.8579 55.5264 74.4236C65.698 75.9892 74.3532 74.5989 74.858 71.3187Z" fill="black"/>
<path d="M78.5103 63.5044C80.7084 61.0176 76.2388 53.4766 68.5274 46.6612C60.816 39.8459 52.7828 36.3371 50.5849 38.8241C48.3869 41.3111 52.8565 48.8521 60.568 55.6674C68.2794 62.4827 76.3126 65.9914 78.5103 63.5044Z" fill="black"/>
<path d="M85.7831 58.9363C88.9767 58.0326 89.294 49.2722 86.4919 39.3696C83.6898 29.467 78.8292 22.1719 75.6355 23.0756C72.4419 23.9793 72.1246 32.7396 74.9267 42.6423C77.7288 52.5448 82.5894 59.84 85.7831 58.9363Z" fill="black"/>
<path d="M105.532 42.9503C108.529 33.1048 108.384 24.34 105.209 23.3735C102.034 22.407 97.0305 29.6048 94.0336 39.4503C91.0368 49.2957 91.1812 58.0605 94.3565 59.027C97.5317 59.9935 102.535 52.7958 105.532 42.9503Z" fill="black"/>
<path d="M119.643 56.255C127.487 49.5917 132.103 42.1395 129.954 39.6102C127.805 37.0807 119.705 40.432 111.862 47.095C104.018 53.7583 99.4024 61.2105 101.551 63.7399C103.7 66.2694 111.8 62.9183 119.643 56.255Z" fill="black"/>
<path d="M124.31 75.0796C134.51 73.7149 142.423 69.9418 141.982 66.652C141.543 63.3624 132.916 61.8019 122.716 63.1664C112.515 64.5311 104.603 68.3042 105.043 71.594C105.483 74.8836 114.109 76.4443 124.31 75.0796Z" fill="black"/>
<path d="M137.468 95.9104C138.877 92.9051 132.464 86.9284 123.145 82.5611C113.826 78.1938 105.13 77.0899 103.722 80.0951C102.313 83.1006 108.726 89.0773 118.045 93.4446C127.364 97.8117 136.06 98.9159 137.468 95.9104Z" fill="black"/>
<path d="M117.866 118.085C120.676 116.318 118.513 107.823 113.035 99.1106C107.557 90.3982 100.839 84.7677 98.0288 86.5343C95.2191 88.3009 97.3821 96.796 102.86 105.508C108.338 114.221 115.057 119.851 117.866 118.085Z" fill="black"/>
</svg>
