<svg width="117" height="116" viewBox="0 0 117 116" fill="none" xmlns="http://www.w3.org/2000/svg">
<path d="M64.7347 95.0354C64.8479 83.4704 61.9158 74.0657 58.1862 74.0292C54.4564 73.9929 51.3412 83.3386 51.2283 94.9033C51.1151 106.468 54.0471 115.873 57.7767 115.91C61.5066 115.946 64.6218 106.6 64.7347 95.0354Z" fill="black"/>
<path d="M43.1033 92.4102C49.4514 82.7425 52.07 73.2456 48.9522 71.1984C45.8342 69.1511 38.1606 75.3287 31.8127 84.9964C25.4646 94.6641 22.846 104.161 25.9638 106.208C29.0818 108.256 36.7552 102.078 43.1033 92.4102Z" fill="black"/>
<path d="M26.3005 78.5396C36.8678 73.8393 44.2053 67.2661 42.6893 63.8581C41.1735 60.45 31.3783 61.4979 20.8109 66.1984C10.2436 70.8987 2.90607 77.4719 4.42198 80.8799C5.93786 84.288 15.7332 83.2402 26.3005 78.5396Z" fill="black"/>
<path d="M41.4208 54.3005C41.9883 50.614 33.1816 46.1993 21.7509 44.4398C10.3199 42.6803 0.593352 44.2427 0.0259487 47.9292C-0.541454 51.6157 8.26514 56.0303 19.6961 57.7897C31.1268 59.5492 40.8535 57.9868 41.4208 54.3005Z" fill="black"/>
<path d="M45.5253 45.5189C47.9954 42.7243 42.9725 34.2497 34.3065 26.5907C25.6405 18.9317 16.6129 14.9885 14.1428 17.7834C11.6727 20.5782 16.6956 29.0527 25.3617 36.7118C34.0278 44.3708 43.0554 48.3139 45.5253 45.5189Z" fill="black"/>
<path d="M53.6983 40.3852C57.2873 39.3696 57.6439 29.5247 54.4949 18.3963C51.3459 7.26772 45.8836 -0.93045 42.2946 0.0851364C38.7056 1.10072 38.349 10.9454 41.498 22.0741C44.647 33.2024 50.1094 41.4007 53.6983 40.3852Z" fill="black"/>
<path d="M75.892 22.4203C79.26 11.356 79.0977 1.50613 75.5294 0.419987C71.961 -0.666183 66.3382 7.42266 62.9702 18.4869C59.6025 29.5512 59.7647 39.4011 63.3331 40.4872C66.9014 41.5733 72.5243 33.4846 75.892 22.4203Z" fill="black"/>
<path d="M91.7504 37.372C100.565 29.8838 105.752 21.5091 103.337 18.6666C100.922 15.824 91.8192 19.5901 83.0052 27.078C74.191 34.5662 69.0036 42.9409 71.4185 45.7835C73.8334 48.626 82.9364 44.8601 91.7504 37.372Z" fill="black"/>
<path d="M96.9943 58.527C108.458 56.9933 117.35 52.7532 116.855 49.0561C116.36 45.3593 106.667 43.6056 95.2031 45.139C83.7398 46.6727 74.8478 50.9128 75.3424 54.6099C75.8371 58.3068 85.5308 60.0607 96.9943 58.527Z" fill="black"/>
<path d="M111.782 81.9364C113.365 78.5591 106.158 71.8426 95.6856 66.9346C85.2133 62.0267 75.4405 60.7861 73.8576 64.1634C72.2748 67.5409 79.4813 74.2575 89.9539 79.1654C100.426 84.0731 110.199 85.314 111.782 81.9364Z" fill="black"/>
<path d="M89.7535 106.856C92.911 104.871 90.4802 95.3238 84.3241 85.5329C78.168 75.7419 70.6176 69.4144 67.46 71.3997C64.3025 73.3849 66.7333 82.9317 72.8894 92.7227C79.0455 102.514 86.5959 108.841 89.7535 106.856Z" fill="black"/>
</svg>
