<svg width="180" height="150" viewBox="0 0 180 150" fill="none" xmlns="http://www.w3.org/2000/svg">
<path d="M51.1305 47C45.3507 47 39.8077 49.2588 35.7208 53.2794L22.3829 66.401C18.296 70.4216 16 75.8747 16 81.5608C16 93.4014 25.7569 103 37.7926 103C43.5724 103 49.1154 100.741 53.2023 96.7205L62.4282 87.6442C62.4284 87.6444 62.4282 87.6441 62.4282 87.6442L89.3093 61.199C91.2612 59.2788 93.9085 58.2 96.6689 58.2C101.29 58.2 105.208 61.1632 106.567 65.2636L115.05 56.9175C111.18 50.9542 104.394 47 96.6689 47C90.8891 47 85.3462 49.2588 81.2593 53.2794L45.1522 88.801C43.2003 90.7213 40.553 91.8 37.7926 91.8C32.0444 91.8 27.3846 87.2158 27.3846 81.5608C27.3846 78.8451 28.4812 76.2408 30.433 74.3205L43.7709 61.199C45.7228 59.2788 48.3701 58.2 51.1305 58.2C55.752 58.2 59.6699 61.1633 61.0282 65.2639L69.5121 56.9177C65.6419 50.9543 58.8557 47 51.1305 47Z" fill="#394149"/>
<path d="M90.6907 88.801C88.7388 90.7213 86.0915 91.8 83.3311 91.8C78.7103 91.8 74.7926 88.8376 73.4339 84.7378L64.9504 93.0837C68.8208 99.0462 75.6066 103 83.3311 103C89.1109 103 94.6539 100.741 98.7407 96.7205L134.848 61.199C136.8 59.2788 139.447 58.2 142.207 58.2C147.956 58.2 152.615 62.7842 152.615 68.4392C152.615 71.1549 151.519 73.7592 149.567 75.6795L136.229 88.801C134.277 90.7213 131.63 91.8 128.87 91.8C124.248 91.8 120.331 88.837 118.972 84.7369L110.489 93.083C114.359 99.046 121.145 103 128.87 103C134.649 103 140.192 100.741 144.279 96.7205L157.617 83.599C161.704 79.5784 164 74.1253 164 68.4392C164 56.5987 154.243 47 142.207 47C136.428 47 130.885 49.2588 126.798 53.2794L90.6907 88.801Z" fill="#394149"/>
</svg>
