<svg width="32" height="40" viewBox="0 0 32 40" fill="none" xmlns="http://www.w3.org/2000/svg">
<path d="M18.0588 2.47058C18.0588 1.33352 17.1371 0.411757 16 0.411757C14.8629 0.411758 13.9412 1.33352 13.9412 2.47058L18.0588 2.47058ZM14.5442 38.9264C15.3482 39.7304 16.6518 39.7304 17.4558 38.9264L30.5581 25.8241C31.3621 25.0201 31.3621 23.7165 30.5581 22.9125C29.7541 22.1085 28.4505 22.1085 27.6465 22.9125L16 34.559L4.35354 22.9125C3.54952 22.1085 2.24594 22.1085 1.44192 22.9125C0.637899 23.7165 0.637899 25.0201 1.44192 25.8241L14.5442 38.9264ZM16 2.47058L13.9412 2.47058L13.9412 37.4706L16 37.4706L18.0588 37.4706L18.0588 2.47058L16 2.47058Z" fill="#F1E8E0"/>
</svg>
