<svg width="124" height="124" viewBox="0 0 124 124" fill="none" xmlns="http://www.w3.org/2000/svg">
<circle cx="62" cy="62" r="62" fill="#6D2732"/>
<path d="M64.0588 43.4706C64.0588 42.3335 63.1371 41.4118 62 41.4118C60.8629 41.4118 59.9412 42.3335 59.9412 43.4706L64.0588 43.4706ZM60.5442 79.9264C61.3482 80.7304 62.6518 80.7304 63.4558 79.9264L76.5581 66.8241C77.3621 66.0201 77.3621 64.7165 76.5581 63.9125C75.7541 63.1085 74.4505 63.1085 73.6465 63.9125L62 75.559L50.3535 63.9125C49.5495 63.1085 48.2459 63.1085 47.4419 63.9125C46.6379 64.7165 46.6379 66.0201 47.4419 66.8241L60.5442 79.9264ZM62 43.4706L59.9412 43.4706L59.9412 78.4706L62 78.4706L64.0588 78.4706L64.0588 43.4706L62 43.4706Z" fill="#F1E8E0"/>
</svg>
