<svg width="70" height="71" viewBox="0 0 70 71" fill="none" xmlns="http://www.w3.org/2000/svg">
<circle cx="34.6941" cy="35.4167" r="34.6941" fill="white"/>
<g clip-path="url(#clip0_136_348)">
<path d="M43.3803 13.9482H24.8197C18.5167 13.9482 13.3887 19.0671 13.3887 25.3586V43.8851C13.3887 50.1769 18.5167 55.2954 24.8197 55.2954H43.3803C49.6839 55.2954 54.8119 50.1766 54.8119 43.8851V25.3586C54.8121 19.0671 49.6839 13.9482 43.3803 13.9482ZM51.1369 43.8851C51.1369 48.154 47.6574 51.6269 43.3806 51.6269H24.8197C20.5432 51.6271 17.0639 48.154 17.0639 43.8851V25.3586C17.0639 21.0899 20.5432 17.6168 24.8197 17.6168H43.3803C47.6571 17.6168 51.1366 21.0899 51.1366 25.3586V43.8851H51.1369Z" fill="#6D2732"/>
<path d="M34.1004 23.9683C28.2148 23.9683 23.4266 28.7476 23.4266 34.6224C23.4266 40.4969 28.2148 45.276 34.1004 45.276C39.9859 45.276 44.7741 40.4969 44.7741 34.6224C44.7741 28.7476 39.9859 23.9683 34.1004 23.9683ZM34.1004 41.6073C30.2416 41.6073 27.1019 38.4738 27.1019 34.6221C27.1019 30.7702 30.2413 27.6365 34.1004 27.6365C37.9594 27.6365 41.0988 30.7702 41.0988 34.6221C41.0988 38.4738 37.9591 41.6073 34.1004 41.6073Z" fill="#6D2732"/>
<path d="M45.2217 20.8579C44.5136 20.8579 43.818 21.1441 43.3179 21.6454C42.8154 22.1443 42.5265 22.8389 42.5265 23.5482C42.5265 24.2552 42.8157 24.9495 43.3179 25.4509C43.8178 25.9498 44.5136 26.2384 45.2217 26.2384C45.9323 26.2384 46.6257 25.9498 47.128 25.4509C47.6303 24.9495 47.9169 24.255 47.9169 23.5482C47.9169 22.8389 47.6303 22.1443 47.128 21.6454C46.6281 21.1441 45.9323 20.8579 45.2217 20.8579Z" fill="#6D2732"/>
</g>
<defs>
<clipPath id="clip0_136_348">
<rect width="41.4235" height="41.3474" fill="white" transform="translate(13.3887 13.9482)"/>
</clipPath>
</defs>
</svg>
