<svg width="210" height="210" viewBox="0 0 210 210" fill="none" xmlns="http://www.w3.org/2000/svg">
<path d="M102.144 85.1416C102.714 83.388 105.195 83.388 105.764 85.1416L108.726 94.2567C108.981 95.041 109.712 95.5719 110.536 95.5719H120.121C121.964 95.5719 122.731 97.9314 121.239 99.0152L113.485 104.649C112.818 105.133 112.539 105.992 112.794 106.777L115.756 115.892C116.326 117.645 114.318 119.104 112.827 118.02L105.073 112.386C104.406 111.902 103.502 111.902 102.835 112.386L95.0816 118.02C93.5899 119.104 91.5828 117.645 92.1526 115.892L95.1143 106.777C95.3691 105.992 95.0899 105.133 94.4228 104.649L86.669 99.0152C85.1773 97.9314 85.944 95.5719 87.7878 95.5719H97.372C98.1966 95.5719 98.9274 95.041 99.1823 94.2567L102.144 85.1416Z" fill="#252422"/>
<circle cx="105" cy="105" r="104.543" stroke="#252422" stroke-opacity="0.12" stroke-width="0.913043"/>
<circle cx="171.164" cy="110.163" r="3.5" fill="#252422"/>
<circle cx="38.1637" cy="99.1626" r="3.5" fill="#252422"/>
<path d="M45.4685 88.0486L34.7233 84.8897L35.0798 83.677L45.8251 86.8359L45.4685 88.0486ZM48.1358 80.8424L38.9492 76.8114L37.432 80.2692L36.3625 79.7999L39.9048 71.7269L40.9744 72.1962L39.4571 75.6539L48.6437 79.6849L48.1358 80.8424ZM53.3958 70.5917L47.9042 59.4952L48.6545 58.5793L60.6149 61.779L59.753 62.8311L56.6318 61.9703L52.7688 66.6861L54.2171 69.5891L53.3958 70.5917ZM52.2043 65.5825L55.4387 61.6341L49.4079 59.9824L52.2043 65.5825ZM62.0973 60.2762L54.8645 51.7248L55.8295 50.9085L62.3081 58.5681L67.1213 54.4971L67.8756 55.3889L62.0973 60.2762ZM69.7488 54.0431L63.9898 44.4372L65.0739 43.7872L70.2323 52.3914L75.6391 49.1499L76.2397 50.1516L69.7488 54.0431ZM86.8704 46.1695C85.1522 46.6786 83.6079 46.5355 81.9738 45.7515L82.4618 44.639C83.8863 45.3349 85.1056 45.5076 86.5936 45.0666C88.051 44.6348 88.7594 43.5904 88.4458 42.5319L88.4367 42.5012C88.1412 41.5041 87.4406 41.111 85.04 41.2883C82.4111 41.4833 81.0395 41.022 80.5167 39.2579L80.5076 39.2272C80.0121 37.5551 81.1273 35.8562 83.1676 35.2515C84.7477 34.7833 85.9687 34.9054 87.3324 35.4525L86.904 36.5974C85.666 36.0798 84.5643 36.0225 83.4597 36.3498C82.0484 36.7681 81.3967 37.7789 81.6877 38.7607L81.6968 38.7913C81.9968 39.8038 82.7065 40.2277 85.2298 40.0139C87.782 39.8416 89.1411 40.3734 89.6275 42.0148L89.6366 42.0455C90.1822 43.8864 89.0027 45.5376 86.8704 46.1695ZM95.7731 44.0291L94.471 34.082L90.7269 34.5721L90.5753 33.414L99.3167 32.2697L99.4683 33.4278L95.7243 33.9179L97.0264 43.8651L95.7731 44.0291ZM100.709 43.4067L106.301 32.3607L107.484 32.4124L112.09 43.9048L110.731 43.8454L109.55 40.8308L103.46 40.5643L102.004 43.4634L100.709 43.4067ZM104.005 39.4511L109.104 39.6742L106.812 33.8564L104.005 39.4511ZM114.098 44.1945L116.766 33.3169L121.444 34.4641C122.796 34.7957 123.753 35.4589 124.269 36.3103C124.68 36.9876 124.796 37.7903 124.582 38.6605L124.575 38.6916C124.133 40.4942 122.627 41.2615 120.845 41.1375L123.096 46.4012L121.588 46.0315L119.471 41.0311L116.363 40.2689L115.326 44.4956L114.098 44.1945ZM116.633 39.1656L119.974 39.985C121.59 40.3814 122.977 39.8319 123.32 38.4333L123.328 38.4023C123.659 37.0503 122.828 36.0063 121.072 35.5756L117.716 34.7524L116.633 39.1656ZM127.822 48.2819L131.881 39.1075L128.428 37.5799L128.9 36.5117L136.962 40.0784L136.49 41.1465L133.037 39.6189L128.978 48.7932L127.822 48.2819ZM137.388 53.601C135.896 52.6093 135.015 51.3327 134.569 49.5761L135.735 49.237C136.115 50.7763 136.764 51.8225 138.057 52.6813C139.323 53.5225 140.579 53.3962 141.19 52.4767L141.207 52.45C141.783 51.5838 141.635 50.7941 139.959 49.0661C138.124 47.1742 137.598 45.826 138.616 44.2934L138.634 44.2667C139.599 42.8141 141.618 42.5801 143.39 43.7577C144.763 44.6697 145.452 45.6848 145.907 47.0819L144.754 47.4876C144.357 46.2057 143.694 45.3237 142.735 44.6862C141.509 43.8716 140.315 44.02 139.749 44.8729L139.731 44.8996C139.147 45.7791 139.277 46.5954 141.059 48.3943C142.828 50.242 143.292 51.6257 142.344 53.0517L142.327 53.0784C141.264 54.6776 139.241 54.8317 137.388 53.601ZM146.548 60.6233L154.988 53.2603L155.819 54.2127L152.069 57.484L156.318 62.3548L160.068 59.0836L160.899 60.036L152.459 67.3991L151.629 66.4466L155.426 63.1332L151.177 58.2624L147.379 61.5758L146.548 60.6233ZM154.314 69.822L163.963 64.1357L168.073 71.1106L167.081 71.6955L163.612 65.8095L160.318 67.751L163.421 73.0166L162.428 73.6015L159.325 68.3359L155.948 70.3261L159.457 76.281L158.465 76.8658L154.314 69.822ZM159.535 79.0659L170.059 75.2344L171.707 79.7598C172.183 81.0678 172.164 82.2325 171.743 83.1349C171.409 83.8527 170.806 84.3956 169.964 84.7021L169.934 84.713C168.19 85.348 166.715 84.5229 165.827 82.9731L162.704 87.7709L162.173 86.3126L165.151 81.7717L164.057 78.7648L159.967 80.2536L159.535 79.0659ZM165.124 78.3762L166.301 81.6086C166.87 83.1722 168.098 84.0193 169.451 83.5267L169.481 83.5157C170.789 83.0395 171.195 81.7681 170.576 80.0692L169.394 76.8217L165.124 78.3762ZM163.267 89.8892L174.316 88.0589L175.639 96.0461L174.503 96.2343L173.386 89.4942L169.614 90.1191L170.612 96.1489L169.476 96.3372L168.477 90.3073L164.61 90.9479L165.739 97.767L164.603 97.9552L163.267 89.8892ZM162.451 121.654L173.129 125.034L172.748 126.239L162.07 122.86L162.451 121.654ZM159.629 128.775L168.713 133.032L170.316 129.612L171.373 130.108L167.632 138.091L166.575 137.595L168.177 134.176L159.093 129.919L159.629 128.775ZM154.128 138.905L159.357 150.127L158.586 151.025L146.704 147.546L147.59 146.514L150.69 147.448L154.663 142.824L153.283 139.888L154.128 138.905ZM155.201 143.941L151.875 147.812L157.865 149.605L155.201 143.941ZM145.182 149.02L152.225 157.728L151.242 158.523L144.934 150.723L140.032 154.686L139.298 153.778L145.182 149.02ZM137.405 155.072L142.927 164.816L141.828 165.439L136.881 156.712L131.397 159.82L130.821 158.804L137.405 155.072ZM120.106 162.539C121.837 162.073 123.377 162.255 124.991 163.08L124.475 164.18C123.069 163.448 121.854 163.245 120.355 163.649C118.888 164.044 118.153 165.07 118.44 166.136L118.449 166.167C118.719 167.171 119.41 167.582 121.814 167.465C124.447 167.336 125.806 167.831 126.285 169.608L126.293 169.639C126.747 171.323 125.589 172.993 123.535 173.547C121.943 173.975 120.726 173.822 119.376 173.241L119.833 172.108C121.058 172.656 122.158 172.741 123.27 172.441C124.691 172.059 125.368 171.064 125.102 170.076L125.094 170.045C124.819 169.025 124.12 168.584 121.592 168.734C119.037 168.842 117.691 168.277 117.246 166.624L117.238 166.593C116.738 164.739 117.959 163.118 120.106 162.539ZM111.142 164.467L112.216 174.441L115.97 174.037L116.095 175.198L107.33 176.142L107.205 174.981L110.959 174.577L109.885 164.602L111.142 164.467ZM106.197 164.976L100.347 175.887L99.1659 175.808L94.8309 164.211L96.1879 164.302L97.2981 167.343L103.38 167.753L104.904 164.889L106.197 164.976ZM102.809 168.853L97.7167 168.51L99.8714 174.38L102.809 168.853ZM92.8232 163.874L89.9162 174.69L85.2653 173.44C83.921 173.079 82.9782 172.395 82.4811 171.532C82.0856 170.846 81.9872 170.041 82.2198 169.176L82.2281 169.145C82.7098 167.352 84.2325 166.618 86.0111 166.782L83.8767 161.47L85.3755 161.872L87.3826 166.918L90.4729 167.749L91.6025 163.546L92.8232 163.874ZM90.1781 168.846L86.856 167.953C85.249 167.521 83.8504 168.04 83.4767 169.431L83.4684 169.462C83.1071 170.806 83.9151 171.868 85.6611 172.337L88.9987 173.234L90.1781 168.846ZM79.2175 159.479L74.9257 168.547L78.3387 170.162L77.8391 171.218L69.8705 167.447L70.3702 166.391L73.7832 168.006L78.075 158.939L79.2175 159.479ZM69.7529 153.923C71.2246 154.946 72.0786 156.24 72.4886 158.006L71.3153 158.32C70.9677 156.774 70.34 155.714 69.0653 154.829C67.817 153.962 66.559 154.062 65.9291 154.968L65.9109 154.995C65.3175 155.849 65.4488 156.641 67.0883 158.404C68.8844 160.333 69.3821 161.692 68.3323 163.203L68.3141 163.23C67.3191 164.662 65.2959 164.854 63.5482 163.64C62.1948 162.7 61.5265 161.67 61.1008 160.264L62.2621 159.882C62.6324 161.172 63.2765 162.068 64.2226 162.725C65.4316 163.565 66.6279 163.441 67.2121 162.6L67.2303 162.574C67.8328 161.707 67.7198 160.888 65.9752 159.053C64.2448 157.169 63.8099 155.776 64.7866 154.369L64.8049 154.343C65.9003 152.766 67.9264 152.654 69.7529 153.923ZM60.7634 146.702L52.1592 153.872L51.35 152.901L55.1727 149.715L51.0347 144.75L47.2119 147.935L46.4028 146.964L55.007 139.794L55.8162 140.765L51.9443 143.992L56.0823 148.957L59.9542 145.731L60.7634 146.702ZM53.2196 137.341L43.4272 142.777L39.4979 135.698L40.5051 135.139L43.8209 141.112L47.1643 139.256L44.1979 133.913L45.2052 133.353L48.1716 138.697L51.5989 136.795L48.2443 130.751L49.2515 130.192L53.2196 137.341ZM48.2323 127.957L37.6191 131.534L36.0807 126.971C35.636 125.652 35.6827 124.488 36.1249 123.596C36.4767 122.886 37.0922 122.358 37.9413 122.072L37.9716 122.061C39.7304 121.469 41.1854 122.329 42.0357 123.899L45.2731 119.178L45.7688 120.649L42.6824 125.117L43.7045 128.149L47.8285 126.759L48.2323 127.957ZM42.6281 128.512L41.5292 125.252C40.9977 123.675 39.7905 122.799 38.426 123.259L38.3956 123.269C37.0766 123.714 36.6406 124.975 37.2182 126.688L38.3221 129.963L42.6281 128.512ZM44.7544 117.032L33.6694 118.633L32.512 110.62L33.6521 110.456L34.6289 117.217L38.4136 116.671L37.5398 110.621L38.6799 110.457L39.5538 116.506L43.4335 115.946L42.4453 109.105L43.5855 108.94L44.7544 117.032Z" fill="#252422"/>
</svg>
